HIERARCHY
ROOT root
{
	OFFSET	0	13.1	24.9
	CHANNELS 6  Xposition Yposition Zposition Xrotation Yrotation Zrotation
	JOINT spine_1
	{
		OFFSET	0	9.99999	0
		CHANNELS 3  Xrotation Yrotation Zrotation
		JOINT spine_2
		{
			OFFSET	0	112	-10
			CHANNELS 3  Xrotation Yrotation Zrotation
			JOINT spine_3
			{
				OFFSET	0	206.5	19.3
				CHANNELS 3  Xrotation Yrotation Zrotation
				JOINT spine_4
				{
					OFFSET	0	110.4	14.6
					CHANNELS 3  Xrotation Yrotation Zrotation
					JOINT neck_1
					{
						OFFSET	0	71.8	-50.3
						CHANNELS 3  Xrotation Yrotation Zrotation
						JOINT neck_2
						{
							OFFSET	0	86.2	-25.8
							CHANNELS 3  Xrotation Yrotation Zrotation
							JOINT head_ee
							{
								OFFSET	0	179.8	-8.7
								CHANNELS 3  Xrotation Yrotation Zrotation
								End Site
								{
									OFFSET	1	0	0
								}
							}
						}
					}
					JOINT left_clavicle
					{
						OFFSET	-43.2	22.4	-70.8
						CHANNELS 3  Xrotation Yrotation Zrotation
						JOINT left_shoulder
						{
							OFFSET	-93.9	-5.79999	48.7
							CHANNELS 3  Xrotation Yrotation Zrotation
							JOINT left_elbow
							{
								OFFSET	-291.4	-30.8	15.2
								CHANNELS 3  Xrotation Yrotation Zrotation
								JOINT left_lowarm_twist
								{
									OFFSET	-110.7	-3.89999	13.6
									CHANNELS 3  Xrotation Yrotation Zrotation
									JOINT left_hand
									{
										OFFSET	-110.7	-3.89999	13.6
										CHANNELS 3  Xrotation Yrotation Zrotation
										JOINT left_ee
										{
											OFFSET	-80.8	-5.10001	12.1
											CHANNELS 3  Xrotation Yrotation Zrotation
											End Site
											{
												OFFSET	1	0	0
											}
										}
									}
								}
							}
						}
					}
					JOINT right_clavicle
					{
						OFFSET	43.2	22.4	-70.8
						CHANNELS 3  Xrotation Yrotation Zrotation
						JOINT right_shoulder
						{
							OFFSET	93.9	-5.79999	48.7
							CHANNELS 3  Xrotation Yrotation Zrotation
							JOINT right_elbow
							{
								OFFSET	291.4	-30.8	15.2
								CHANNELS 3  Xrotation Yrotation Zrotation
								JOINT right_lowarm_twist
								{
									OFFSET	110.7	-3.89999	13.6
									CHANNELS 3  Xrotation Yrotation Zrotation
									JOINT right_hand
									{
										OFFSET	110.7	-3.89999	13.6
										CHANNELS 3  Xrotation Yrotation Zrotation
										JOINT right_ee
										{
											OFFSET	80.8	-5.10001	12.1
											CHANNELS 3  Xrotation Yrotation Zrotation
											End Site
											{
												OFFSET	1	0	0
											}
										}
									}
								}
							}
						}
					}
				}
			}
		}
	}
	JOINT left_hip
	{
		OFFSET	-82.8	-127.5	0.300001
		CHANNELS 3  Xrotation Yrotation Zrotation
		JOINT left_knee
		{
			OFFSET	-28.2	-396.7	2.2
			CHANNELS 3  Xrotation Yrotation Zrotation
			JOINT left_ankle
			{
				OFFSET	-11.7	-411.3	35.4
				CHANNELS 3  Xrotation Yrotation Zrotation
				JOINT left_toes
				{
					OFFSET	0	-60	-88.6
					CHANNELS 3  Xrotation Yrotation Zrotation
					JOINT left_foot_ee
					{
						OFFSET	-22.5	-16.5	-42.2
						CHANNELS 3  Xrotation Yrotation Zrotation
						End Site
						{
							OFFSET	1	0	0
						}
					}
				}
			}
		}
	}
	JOINT right_hip
	{
		OFFSET	82.8	-127.5	0.300001
		CHANNELS 3  Xrotation Yrotation Zrotation
		JOINT right_knee
		{
			OFFSET	28.2	-396.7	2.2
			CHANNELS 3  Xrotation Yrotation Zrotation
			JOINT right_ankle
			{
				OFFSET	11.7	-411.3	35.4
				CHANNELS 3  Xrotation Yrotation Zrotation
				JOINT right_toes
				{
					OFFSET	0	-60	-88.6
					CHANNELS 3  Xrotation Yrotation Zrotation
					JOINT right_foot_ee
					{
						OFFSET	22.5	-16.5	-42.2
						CHANNELS 3  Xrotation Yrotation Zrotation
						End Site
						{
							OFFSET	1	0	0
						}
					}
				}
			}
		}
	}
}
MOTION
Frames: 10
Frame Time: 0.02
2945.72955429 687.807 -1899.75328194 -22.8092858437 27.4407671593 7.75309975857 8.56592 0.244518 1.35897 8.56693 0.157556 1.37177 8.5688 0.0720091 1.37891 8.56626 0.288858 1.35024 -17.0134 -1.65722 0.896602 -17.026 -3.68454 0.234679 -0.0 0.0 -0.0 9.5748 -9.49761 18.9137 -21.4074 3.18313 60.904 1.88665 -43.0591 0.744351 -32.4286 -2.18426 3.46558 -2.13977 -28.1375 -26.2302 -0.0 0.0 -0.0 7.64395 5.73506 -14.8607 -27.6299 19.8737 -70.0294 0.524415 14.5626 -0.0670054 -22.3027 1.29426 -2.523 2.69126 19.7927 -9.46157 0.0 0.0 0.0 33.9305 -3.4121 8.09908 -16.695 0.320346 2.53293 25.8238 14.835 -3.46135 14.8347 -0.0 -0.0 -0.0 0.0 -0.0 53.1018 17.0555 1.32546 -76.9197 4.2754 -10.0971 36.6989 30.3133 5.60379 38.4798 -0.0 -0.0 0.0 0.0 0.0 
2929.9856667 686.54 -1908.56880259 -23.0991020241 28.4320597169 9.08717331722 8.66056 0.330136 1.31946 8.66149 0.245514 1.33779 8.66539 0.16421 1.35018 8.66305 0.375367 1.30731 -16.8007 -0.577729 -3.21915 -16.7722 0.705313 -3.22629 -0.0 0.0 -0.0 9.57067 -10.3097 18.8916 -19.8804 0.978586 58.7928 2.00947 -44.8638 0.829623 -29.2811 -1.88987 3.18951 -1.38715 -23.1632 -19.1795 -0.0 0.0 -0.0 7.89176 3.10631 -15.393 -31.791 22.1024 -67.8408 0.601264 16.5862 -0.0876419 -24.1224 1.44164 -2.70365 2.94504 19.6942 -11.2133 0.0 0.0 0.0 31.8319 -1.77958 7.00175 -16.2571 0.321427 2.46575 30.5647 12.1574 -3.97034 13.258 -0.0 -0.0 -0.0 0.0 -0.0 57.2218 13.766 1.1938 -77.4294 4.34464 -10.1346 37.2604 30.1244 5.64985 38.3148 -0.0 -0.0 0.0 0.0 0.0 
2901.99736657 692.871 -1910.6876106 -24.463427463 31.5329939091 11.0359402763 8.84022 0.337813 1.19459 8.84098 0.26112 1.21366 8.84497 0.191136 1.22663 8.84307 0.382446 1.18106 -17.1408 -1.35318 -3.33078 -17.11 -0.741629 -3.61421 -0.0 0.0 -0.0 9.64084 -11.3689 19.0223 -17.2691 0.602132 57.7713 2.20889 -47.5697 0.973636 -28.5942 -1.82768 3.12715 -1.01563 -16.1884 -13.7987 -0.0 0.0 -0.0 7.86257 -2.97294 -15.2476 -35.6398 23.6879 -63.7211 0.578603 15.9937 -0.0812854 -27.5639 1.73581 -3.03225 2.82139 22.3601 -9.06296 0.0 0.0 0.0 30.4664 2.80116 6.68507 -16.2211 0.321493 2.46023 29.7962 8.77328 -3.87024 13.9427 -0.0 -0.0 -0.0 0.0 -0.0 61.0428 13.5282 0.255096 -74.9085 4.0055 -9.94311 32.644 30.6149 5.16823 40.0518 -0.0 -0.0 0.0 0.0 0.0 
2881.70810552 695.878 -1906.62347589 -25.1414075698 34.5670350359 13.0585082608 8.83276 0.287611 1.04473 8.83334 0.220553 1.06092 8.83624 0.159215 1.07184 8.83479 0.326484 1.03325 -17.6975 -0.282508 -3.26249 -17.6696 1.24533 -3.15537 -0.0 0.0 -0.0 10.1605 -10.1956 20.1826 -14.0934 1.60408 55.7148 2.28939 -48.5887 1.03354 -28.5446 -1.82322 3.12262 -0.251415 -18.414 -9.52737 -0.0 0.0 -0.0 8.36364 -1.2627 -16.2856 -40.355 24.9935 -62.8304 0.630157 17.3365 -0.0960709 -28.8481 1.85058 -3.15029 3.42082 25.2128 -11.5435 0.0 0.0 0.0 28.5978 6.53084 5.76186 -15.2667 0.321977 2.3138 32.2081 4.26692 -4.12113 11.6936 -0.0 -0.0 -0.0 0.0 -0.0 63.468 10.5207 -1.00634 -70.6756 3.45606 -9.58878 31.0262 27.8646 4.80815 39.1446 -0.0 -0.0 0.0 0.0 0.0 
2839.30774972 694.874 -1912.78059942 -26.9953322416 38.5264147478 16.2558733019 8.84321 0.225889 0.642179 8.84342 0.184569 0.655251 8.84509 0.146699 0.664754 8.84456 0.249841 0.633245 -17.6727 0.49504 -2.55387 -17.6612 2.35276 -2.20087 -0.0 0.0 -0.0 9.75095 -11.3905 19.2629 -8.81905 -2.46702 56.3156 2.34177 -49.2303 1.07301 -27.834 -1.75972 3.05728 -0.0436023 -16.1814 -7.1828 -0.0 0.0 -0.0 8.02669 -6.90271 -15.4075 -42.031 21.4227 -58.9815 0.583702 16.1273 -0.082696 -33.2495 2.26352 -3.5349 4.58045 26.031 -18.7752 0.0 0.0 0.0 28.3385 12.5255 4.88375 -18.8374 0.307662 2.86138 32.6734 1.55421 -4.17866 9.55676 -0.0 -0.0 -0.0 0.0 -0.0 63.1378 8.83445 -0.320887 -58.6026 2.05099 -8.36969 25.8808 25.6586 4.05322 39.5862 -0.0 -0.0 0.0 0.0 0.0 
2833.76160349 694.874 -1904.89753219 -27.4890967683 39.7057809767 17.0384673603 8.84321 0.225889 0.642179 8.84342 0.184569 0.655251 8.84509 0.146699 0.664754 8.84456 0.249841 0.633245 -17.6727 0.49504 -2.55387 -17.6612 2.35276 -2.20087 -0.0 0.0 -0.0 9.75095 -11.3905 19.2629 -8.81905 -2.46702 56.3156 2.34177 -49.2303 1.07301 -27.834 -1.75972 3.05728 -0.0436023 -16.1814 -7.1828 -0.0 0.0 -0.0 8.02669 -6.90271 -15.4075 -42.031 21.4227 -58.9815 0.583702 16.1273 -0.082696 -33.2495 2.26352 -3.5349 4.58045 26.031 -18.7752 0.0 0.0 0.0 28.3385 12.5255 4.88375 -18.8374 0.307662 2.86138 32.6734 1.55421 -4.17866 9.55676 -0.0 -0.0 -0.0 0.0 -0.0 63.1378 8.83445 -0.320887 -58.6026 2.05099 -8.36969 25.8808 25.6586 4.05322 39.5862 -0.0 -0.0 0.0 0.0 0.0 
2829.60349391 694.874 -1898.72192301 -27.8908752191 40.6130343366 17.6614373255 8.84321 0.225889 0.642179 8.84342 0.184569 0.655251 8.84509 0.146699 0.664754 8.84456 0.249841 0.633245 -17.6727 0.49504 -2.55387 -17.6612 2.35276 -2.20087 -0.0 0.0 -0.0 9.75095 -11.3905 19.2629 -8.81905 -2.46702 56.3156 2.34177 -49.2303 1.07301 -27.834 -1.75972 3.05728 -0.0436023 -16.1814 -7.1828 -0.0 0.0 -0.0 8.02669 -6.90271 -15.4075 -42.031 21.4227 -58.9815 0.583702 16.1273 -0.082696 -33.2495 2.26352 -3.5349 4.58045 26.031 -18.7752 0.0 0.0 0.0 28.3385 12.5255 4.88375 -18.8374 0.307662 2.86138 32.6734 1.55421 -4.17866 9.55676 -0.0 -0.0 -0.0 0.0 -0.0 63.1378 8.83445 -0.320887 -58.6026 2.05099 -8.36969 25.8808 25.6586 4.05322 39.5862 -0.0 -0.0 0.0 0.0 0.0 
2803.69345143 687.662 -1920.45724096 -29.4479077517 41.6440070716 19.1466962429 9.11804 0.0847757 0.360948 9.1181 0.061636 0.365611 9.11835 0.0423258 0.368346 9.11818 0.0999677 0.357039 -19.8987 1.31834 -0.266416 -19.9087 2.67729 0.299516 -0.0 0.0 -0.0 10.1317 -16.0843 19.9363 -3.37344 -2.99324 54.8282 2.21889 -47.6986 0.981028 -24.2164 -1.44941 2.71286 0.811367 -16.6527 -1.64891 -0.0 0.0 -0.0 7.69044 -6.5473 -14.7921 -44.7903 19.4545 -59.6556 0.581988 16.0824 -0.0822207 -37.5654 2.69604 -3.88038 5.3074 27.8503 -22.5375 0.0 0.0 0.0 28.0604 14.0693 4.64708 -21.7354 0.270983 3.30449 35.7396 1.63042 -4.47974 6.42492 -0.0 -0.0 -0.0 0.0 -0.0 63.9072 4.97986 0.414475 -38.0992 0.350287 -5.73033 7.9782 27.153 1.39627 38.764 -0.0 -0.0 0.0 0.0 0.0 
2787.59718251 680.492 -1939.82785635 -30.6884495192 41.7452338982 20.5012251976 9.31178 -0.0243013 0.226121 9.31181 -0.0386407 0.224117 9.31161 -0.0496246 0.221943 9.31154 -0.0139501 0.226995 -17.1583 1.91082 1.35614 -17.1621 2.91489 1.9714 -0.0 0.0 -0.0 10.0943 -16.3796 19.838 -0.93146 -1.46656 55.5255 2.18695 -47.2849 0.957478 -21.645 -1.24243 2.45658 0.998979 -14.4076 0.587051 -0.0 0.0 -0.0 7.67488 -5.98248 -14.7856 -45.4408 17.9997 -61.2985 0.5366 14.8861 -0.0701026 -38.7274 2.81684 -3.96777 5.28075 26.5989 -23.1726 0.0 0.0 0.0 27.8622 14.3084 4.29598 -22.3702 0.259959 3.40127 39.8077 3.63977 -4.84245 4.31662 -0.0 -0.0 -0.0 0.0 -0.0 63.3575 4.47947 -0.207403 -34.3144 0.145216 -5.18626 9.31749 24.5307 1.57291 39.8191 -0.0 -0.0 0.0 0.0 0.0 
2778.36547998 680.512 -1956.84927331 -31.7655664528 40.4394673161 20.6875716632 9.54875 0.135547 0.147638 9.54875 0.125878 0.155964 9.54908 0.11872 0.16148 9.54907 0.142733 0.140703 -17.5339 2.72598 1.67781 -17.5466 4.31583 2.58801 -0.0 0.0 -0.0 10.2252 -16.4328 20.1275 -3.31617 -2.80436 54.5972 2.42622 -50.2309 1.13746 -17.9048 -0.962453 2.068 1.31489 -18.3834 0.946054 -0.0 0.0 -0.0 7.53537 -8.17163 -14.4326 -45.8909 19.5236 -61.0395 0.437893 12.2391 -0.0469487 -38.5463 2.7979 -3.95431 4.98181 24.9471 -22.1651 0.0 0.0 0.0 27.4268 20.2868 3.38869 -22.1328 0.264207 3.36509 39.7082 -1.77344 -4.86615 0.748942 -0.0 -0.0 -0.0 0.0 -0.0 62.421 4.88459 -0.0664171 -27.1753 -0.141852 -4.12901 4.22974 25.3079 0.734343 39.9549 -0.0 -0.0 0.0 0.0 0.0 
